# xmcd
#
# Track frame offsets:
#	150
#	15947
#	32244
#	42610
#	60092
#	76512
#	91502
#	111555
#	122345
#	138930
#	151890
#	162897
#	176532
#	188622
#	201502
#
# Disc length: 2822 seconds
#
# Revision: 1
# Processed by: cddbd v1.4PL0 Copyright (c) Steve Scherf et al.
# Submitted via: EasyCDDAExtractor 5.1.0
#
DISCID=ac0b040f
DTITLE=agaton band - agatonjubileum nr. 1
DYEAR=1997
DGENRE=Country
TTITLE0=ebbe från skanör
TTITLE1=tänk vad tiden går
TTITLE2=danskväll
TTITLE3=gammal glöd
TTITLE4=olga
TTITLE5=apparatvisan
TTITLE6=älsklingsflickan
TTITLE7=countrydiggaren
TTITLE8=frånskild 30-åring
TTITLE9=ogando
TTITLE10=you're part of me
TTITLE11=profitvisan
TTITLE12=jambalaya
TTITLE13=rosen
TTITLE14=don't we all have the right
EXTD=
EXTT0=
EXTT1=
EXTT2=
EXTT3=
EXTT4=
EXTT5=
EXTT6=
EXTT7=
EXTT8=
EXTT9=
EXTT10=
EXTT11=
EXTT12=
EXTT13=
EXTT14=
PLAYORDER=
